<?xml version="1.0" standalone="no"?><svg xmlns="http://www.w3.org/2000/svg" viewBox="0 0 1440 320"><path fill="#e7008a" fill-opacity="1" d="M0,64L30,106.7C60,149,120,235,180,256C240,277,300,235,360,224C420,213,480,235,540,208C600,181,660,107,720,90.7C780,75,840,117,900,112C960,107,1020,53,1080,42.7C1140,32,1200,64,1260,101.3C1320,139,1380,181,1410,202.7L1440,224L1440,320L1410,320C1380,320,1320,320,1260,320C1200,320,1140,320,1080,320C1020,320,960,320,900,320C840,320,780,320,720,320C660,320,600,320,540,320C480,320,420,320,360,320C300,320,240,320,180,320C120,320,60,320,30,320L0,320Z"></path></svg>